<svg xmlns="http://www.w3.org/2000/svg" width="24" height="24" viewBox="0 0 24 24">
  <path id="np_dashboard_665064_000000" d="M24,1.029A1.031,1.031,0,0,0,22.971,0H13.989A1.031,1.031,0,0,0,12.96,1.029V12.651a1.032,1.032,0,0,0,1.029,1.029h8.983A1.031,1.031,0,0,0,24,12.651ZM1.029,0A1.055,1.055,0,0,0,0,1.029v6.24A1.055,1.055,0,0,0,1.029,8.3h8.983A1.055,1.055,0,0,0,11.04,7.269V1.029A1.055,1.055,0,0,0,10.011,0ZM11.04,11.349a1.031,1.031,0,0,0-1.029-1.029H1.029A1.055,1.055,0,0,0,0,11.349V22.971A1.031,1.031,0,0,0,1.029,24h8.983a1.031,1.031,0,0,0,1.029-1.029ZM24,16.731A1.01,1.01,0,0,0,22.971,15.7H13.989a1.01,1.01,0,0,0-1.029,1.029v6.24A1.01,1.01,0,0,0,13.989,24h8.983A1.01,1.01,0,0,0,24,22.971Z" fill="#fff"/>
</svg>
