<svg id="np_letter_1258723_000000" xmlns="http://www.w3.org/2000/svg" width="24" height="23.999" viewBox="0 0 24 23.999">
  <path id="Path_4115" data-name="Path 4115" d="M40.5,0l-3,2h6Z" transform="translate(-28.5)" fill="#fff"/>
  <path id="Path_4116" data-name="Path 4116" d="M12,66.668a5.042,5.042,0,0,0-1.5.5L0,73.667a.98.98,0,0,0,1,1H23a.98.98,0,0,0,1-1l-10.5-6.5A5.042,5.042,0,0,0,12,66.668Z" transform="translate(0 -50.668)" fill="#fff"/>
  <path id="Path_4117" data-name="Path 4117" d="M0,45.832v11l8.554-5.295Z" transform="translate(0 -34.833)" fill="#fff"/>
  <path id="Path_4118" data-name="Path 4118" d="M64.355,51.537l8.554,5.295v-11Z" transform="translate(-48.91 -34.832)" fill="#fff"/>
  <path id="Path_4119" data-name="Path 4119" d="M89.582,29.168v4.5l2.5-2Z" transform="translate(-68.083 -22.168)" fill="#fff"/>
  <path id="Path_4120" data-name="Path 4120" d="M0,31.667l2.5,2v-4.5Z" transform="translate(0 -22.168)" fill="#fff"/>
  <path id="Path_4121" data-name="Path 4121" d="M14.582,12.5v9l5.5,3.5,1-.5a4.985,4.985,0,0,1,2-.5,4.982,4.982,0,0,1,2,.5l1,.5,5.5-3.5v-9Z" transform="translate(-11.082 -9.5)" fill="#fff"/>
</svg>
